<?xml version="1.0" standalone="no"?>
<!DOCTYPE svg PUBLIC "-//W3C//DTD SVG 20010904//EN"
 "http://www.w3.org/TR/2001/REC-SVG-20010904/DTD/svg10.dtd">
<svg version="1.0" xmlns="http://www.w3.org/2000/svg"
 width="2919.000000pt" height="2940.000000pt" viewBox="0 0 2919.000000 2940.000000"
 preserveAspectRatio="xMidYMid meet">

<g transform="translate(0.000000,2940.000000) scale(0.100000,-0.100000)"
fill="#dc3545" stroke="none">
<path d="M22932 27696 c-523 -932 -953 -1700 -954 -1707 -3 -12 336 -219 359
-219 6 0 29 21 50 47 50 61 282 274 413 380 693 558 1462 733 2165 493 366
-125 682 -338 914 -615 253 -304 457 -764 517 -1166 31 -211 8 -619 -56 -979
-87 -494 -206 -909 -476 -1667 -715 -2009 -958 -3005 -1025 -4203 -12 -212 -7
-900 7 -1142 l7 -108 278 0 279 0 0 198 c0 251 15 572 40 875 47 559 133 1027
260 1421 228 703 720 1475 1610 2526 701 828 1174 1489 1431 2001 210 420 343
845 405 1299 21 155 30 599 15 760 -71 775 -361 1422 -907 2024 -626 691
-1446 1135 -2474 1340 -477 96 -950 136 -1591 136 l-316 0 -951 -1694z"/>
<path d="M2530 21510 c0 -6 -45 -10 -115 -10 -70 0 -115 -4 -115 -10 0 -6 -30
-10 -70 -10 -40 0 -70 -4 -70 -10 0 -5 -20 -10 -45 -10 -33 0 -45 -4 -45 -15
0 -11 -12 -15 -45 -15 -25 0 -45 -4 -45 -10 0 -5 -16 -10 -35 -10 -19 0 -35
-4 -35 -10 0 -5 -16 -10 -35 -10 -24 0 -35 -5 -35 -15 0 -10 -11 -15 -35 -15
-19 0 -35 -4 -35 -10 0 -5 -16 -10 -35 -10 -19 0 -35 -4 -35 -10 0 -5 -9 -10
-20 -10 -11 0 -20 -7 -20 -15 0 -10 -11 -15 -35 -15 -19 0 -35 -4 -35 -10 0
-5 -11 -10 -25 -10 -14 0 -25 -4 -25 -10 0 -5 -9 -10 -20 -10 -11 0 -20 -4
-20 -10 0 -5 -11 -10 -25 -10 -16 0 -25 -6 -25 -15 0 -8 -9 -15 -20 -15 -11 0
-20 -4 -20 -10 0 -5 -7 -10 -15 -10 -8 0 -15 -4 -15 -10 0 -5 -9 -10 -20 -10
-11 0 -20 -7 -20 -15 0 -9 -9 -15 -23 -15 -12 0 -29 -9 -37 -20 -8 -11 -25
-20 -37 -20 -13 0 -23 -4 -23 -10 0 -5 -9 -10 -20 -10 -11 0 -20 -7 -20 -15 0
-8 -6 -15 -13 -15 -7 0 -19 -9 -27 -20 -8 -11 -25 -20 -37 -20 -13 0 -23 -5
-23 -10 0 -19 -48 -60 -70 -60 -11 0 -20 -5 -20 -10 0 -12 -45 -60 -55 -60 -8
0 -35 -27 -35 -35 0 -8 -27 -35 -35 -35 -8 0 -35 -27 -35 -35 0 -8 -47 -55
-55 -55 -8 0 -35 -27 -35 -35 0 -8 -27 -35 -35 -35 -8 0 -35 -27 -35 -35 0
-10 -48 -55 -60 -55 -5 0 -10 -9 -10 -20 0 -22 -41 -70 -60 -70 -5 0 -10 -10
-10 -23 0 -12 -9 -29 -20 -37 -11 -8 -20 -20 -20 -27 0 -7 -7 -13 -15 -13 -8
0 -15 -9 -15 -20 0 -11 -4 -20 -10 -20 -5 0 -10 -10 -10 -23 0 -12 -9 -29 -20
-37 -11 -8 -20 -25 -20 -37 0 -13 -5 -23 -11 -23 -17 0 -39 -27 -39 -49 0 -12
-4 -21 -10 -21 -5 0 -10 -9 -10 -20 0 -11 -7 -20 -15 -20 -9 0 -15 -9 -15 -25
0 -14 -4 -25 -10 -25 -5 0 -10 -9 -10 -20 0 -11 -4 -20 -10 -20 -5 0 -10 -11
-10 -25 0 -14 -4 -25 -10 -25 -5 0 -10 -16 -10 -35 0 -24 -5 -35 -15 -35 -8 0
-15 -9 -15 -20 0 -11 -4 -20 -10 -20 -5 0 -10 -16 -10 -35 0 -19 -4 -35 -10
-35 -5 0 -10 -16 -10 -35 0 -24 -5 -35 -15 -35 -10 0 -15 -11 -15 -35 0 -19
-4 -35 -10 -35 -5 0 -10 -16 -10 -35 0 -19 -4 -35 -10 -35 -5 0 -10 -20 -10
-45 0 -33 -4 -45 -15 -45 -11 0 -15 -12 -15 -45 0 -25 -4 -45 -10 -45 -6 0
-10 -30 -10 -70 0 -40 -4 -70 -10 -70 -6 0 -10 -45 -10 -115 0 -70 -4 -115
-10 -115 -7 0 -10 -2915 -10 -8725 0 -5810 3 -8725 10 -8725 6 0 10 -27 10
-60 0 -33 4 -60 10 -60 6 0 10 -9 10 -20 0 -11 5 -20 10 -20 6 0 10 -16 10
-35 0 -24 5 -35 15 -35 8 0 15 -7 15 -15 0 -8 5 -15 10 -15 6 0 10 -7 10 -16
0 -18 23 -44 39 -44 6 0 11 -7 11 -15 0 -8 5 -15 10 -15 6 0 10 -9 10 -20 0
-11 5 -20 10 -20 6 0 10 -7 10 -15 0 -8 9 -15 20 -15 22 0 70 -41 70 -60 0 -5
11 -10 25 -10 14 0 25 -4 25 -10 0 -5 11 -10 25 -10 14 0 25 -4 25 -10 0 -5 9
-10 20 -10 11 0 20 -4 20 -10 0 -5 20 -10 45 -10 33 0 45 -4 45 -15 0 -13 23
-15 150 -15 127 0 150 2 150 15 0 10 11 15 35 15 19 0 35 5 35 10 0 6 16 10
35 10 19 0 35 5 35 10 0 6 9 10 21 10 22 0 49 22 49 39 0 6 9 11 20 11 11 0
20 5 20 10 0 6 5 10 11 10 11 0 39 25 39 35 0 8 27 35 35 35 8 0 35 27 35 35
0 8 47 55 55 55 8 0 35 27 35 35 0 8 27 35 35 35 8 0 35 27 35 35 0 8 27 35
35 35 8 0 55 47 55 55 0 8 27 35 35 35 8 0 35 27 35 35 0 8 27 35 35 35 8 0
55 47 55 55 0 8 27 35 35 35 8 0 35 27 35 35 0 8 27 35 35 35 8 0 35 27 35 35
0 8 27 35 35 35 8 0 55 47 55 55 0 8 27 35 35 35 8 0 35 27 35 35 0 8 27 35
35 35 8 0 55 47 55 55 0 8 27 35 35 35 8 0 35 27 35 35 0 8 27 35 35 35 8 0
35 27 35 35 0 8 27 35 35 35 8 0 55 47 55 55 0 8 27 35 35 35 8 0 35 27 35 35
0 8 27 35 35 35 8 0 55 47 55 55 0 8 27 35 35 35 8 0 35 27 35 35 0 8 27 35
35 35 8 0 35 27 35 35 0 8 47 55 55 55 8 0 35 27 35 35 0 8 27 35 35 35 8 0
35 27 35 35 0 8 27 35 35 35 8 0 55 47 55 55 0 8 27 35 35 35 8 0 35 27 35 35
0 8 27 35 35 35 8 0 35 27 35 35 0 8 47 55 55 55 8 0 35 27 35 35 0 8 27 35
35 35 8 0 35 27 35 35 0 8 27 35 35 35 8 0 55 47 55 55 0 8 27 35 35 35 8 0
35 27 35 35 0 8 27 35 35 35 8 0 35 27 35 35 0 8 47 55 55 55 8 0 35 27 35 35
0 8 27 35 35 35 8 0 35 27 35 35 0 8 27 35 35 35 8 0 55 47 55 55 0 8 27 35
35 35 8 0 35 27 35 35 0 8 27 35 35 35 8 0 35 27 35 35 0 8 47 55 55 55 8 0
35 27 35 35 0 8 27 35 35 35 8 0 35 27 35 35 0 8 27 35 35 35 8 0 55 47 55 55
0 8 27 35 35 35 8 0 35 27 35 35 0 8 27 35 35 35 8 0 35 27 35 35 0 8 47 55
55 55 8 0 35 27 35 35 0 8 27 35 35 35 8 0 35 27 35 35 0 8 27 35 35 35 8 0
55 47 55 55 0 8 27 35 35 35 8 0 35 27 35 35 0 8 27 35 35 35 8 0 55 47 55 55
0 8 27 35 35 35 8 0 35 27 35 35 0 8 27 35 35 35 8 0 35 27 35 35 0 8 27 35
35 35 8 0 55 47 55 55 0 8 27 35 35 35 8 0 35 27 35 35 0 8 27 35 35 35 8 0
55 47 55 55 0 8 27 35 35 35 8 0 35 27 35 35 0 8 27 35 35 35 10 0 35 28 35
39 0 6 9 11 20 11 21 0 90 61 90 80 0 5 10 10 23 10 12 0 29 9 37 20 8 11 25
20 37 20 14 0 23 6 23 15 0 8 9 15 20 15 11 0 20 5 20 10 0 6 11 10 25 10 14
0 25 5 25 10 0 6 11 10 25 10 14 0 25 5 25 10 0 6 9 10 20 10 11 0 20 7 20 15
0 10 11 15 35 15 19 0 35 5 35 10 0 6 16 10 35 10 19 0 35 5 35 10 0 6 20 10
45 10 33 0 45 4 45 15 0 12 14 15 70 15 40 0 70 4 70 10 0 7 2228 10 6665 10
4437 0 6665 3 6665 10 0 6 33 10 80 10 64 0 80 3 80 15 0 12 13 15 55 15 30 0
55 5 55 10 0 6 20 10 45 10 25 0 45 5 45 10 0 6 20 10 45 10 25 0 45 5 45 10
0 6 16 10 35 10 24 0 35 5 35 15 0 10 11 15 35 15 19 0 35 5 35 10 0 6 16 10
35 10 19 0 35 5 35 10 0 6 11 10 25 10 16 0 25 6 25 15 0 10 11 15 35 15 19 0
35 5 35 10 0 6 9 10 20 10 11 0 20 5 20 10 0 6 11 10 25 10 14 0 25 5 25 10 0
6 9 10 20 10 11 0 20 7 20 15 0 9 9 15 25 15 14 0 25 5 25 10 0 6 9 10 20 10
11 0 20 5 20 10 0 6 7 10 15 10 8 0 15 7 15 15 0 8 9 15 20 15 11 0 20 5 20
10 0 6 9 10 21 10 22 0 49 22 49 39 0 6 10 11 23 11 12 0 29 9 37 20 8 11 23
20 33 20 18 0 47 22 47 35 0 13 29 35 45 35 16 0 45 22 45 35 0 10 28 35 39
35 6 0 11 5 11 10 0 6 9 10 20 10 11 0 20 5 20 10 0 6 7 10 15 10 8 0 15 5 15
11 0 6 14 24 30 39 17 15 30 33 30 39 0 6 5 11 10 11 14 0 60 46 60 60 0 5 5
10 11 10 6 0 24 14 39 30 15 17 33 30 39 30 6 0 11 10 11 23 0 12 9 29 20 37
11 8 20 18 20 23 0 10 26 37 35 37 13 0 35 29 35 45 0 19 23 45 39 45 6 0 11
9 11 21 0 12 14 34 30 49 17 15 30 37 30 49 0 12 6 21 15 21 8 0 15 9 15 20 0
11 5 20 10 20 6 0 10 7 10 15 0 8 5 15 10 15 6 0 10 9 10 20 0 11 7 20 15 20
9 0 15 9 15 25 0 14 5 25 10 25 6 0 10 9 10 20 0 11 5 20 10 20 6 0 10 11 10
25 0 16 6 25 15 25 9 0 15 9 15 25 0 14 5 25 10 25 6 0 10 9 10 20 0 11 5 20
10 20 6 0 10 11 10 25 0 14 5 25 10 25 6 0 10 16 10 35 0 24 5 35 15 35 8 0
15 9 15 20 0 11 5 20 10 20 6 0 10 16 10 35 0 19 5 35 10 35 6 0 10 16 10 35
0 24 5 35 15 35 11 0 15 12 15 45 0 25 5 45 10 45 6 0 10 16 10 35 0 19 5 35
10 35 6 0 10 27 10 60 0 33 4 60 10 60 6 0 10 28 10 65 0 51 3 65 15 65 12 0
15 19 15 115 0 70 4 115 10 115 7 0 10 1853 10 5540 0 3687 -3 5540 -10 5540
-6 0 -10 45 -10 115 0 96 -3 115 -15 115 -12 0 -15 14 -15 70 0 40 -4 70 -10
70 -5 0 -10 20 -10 45 0 25 -4 45 -10 45 -5 0 -10 20 -10 45 0 25 -4 45 -10
45 -5 0 -10 16 -10 35 0 24 -5 35 -15 35 -10 0 -15 11 -15 35 0 19 -4 35 -10
35 -5 0 -10 16 -10 35 0 19 -4 35 -10 35 -5 0 -10 16 -10 35 0 24 -5 35 -15
35 -8 0 -15 9 -15 20 0 11 -4 20 -10 20 -5 0 -10 16 -10 35 0 19 -4 35 -10 35
-5 0 -10 11 -10 25 0 14 -4 25 -10 25 -5 0 -10 9 -10 20 0 11 -7 20 -15 20 -9
0 -15 9 -15 25 0 14 -4 25 -10 25 -5 0 -10 9 -10 20 0 11 -4 20 -10 20 -5 0
-10 11 -10 25 0 14 -5 25 -11 25 -17 0 -39 27 -39 49 0 12 -4 21 -10 21 -5 0
-10 11 -10 25 0 14 -5 25 -11 25 -16 0 -39 26 -39 44 0 9 -4 16 -10 16 -5 0
-10 5 -10 11 0 14 -25 39 -39 39 -6 0 -11 9 -11 20 0 22 -41 70 -60 70 -5 0
-10 9 -10 21 0 12 -14 34 -30 49 -17 15 -30 33 -30 39 0 6 -5 11 -10 11 -14 0
-60 46 -60 60 0 5 -5 10 -11 10 -6 0 -24 14 -39 30 -15 17 -33 30 -39 30 -6 0
-11 5 -11 11 0 6 -14 24 -30 39 -17 15 -30 33 -30 39 0 6 -5 11 -11 11 -6 0
-24 14 -39 30 -15 17 -33 30 -39 30 -6 0 -11 7 -11 15 0 8 -8 15 -18 15 -10 0
-24 9 -32 20 -8 11 -20 20 -27 20 -7 0 -13 7 -13 15 0 8 -9 15 -20 15 -11 0
-20 5 -20 10 0 6 -5 10 -11 10 -14 0 -39 25 -39 39 0 6 -10 11 -23 11 -12 0
-29 9 -37 20 -8 11 -22 20 -32 20 -10 0 -18 5 -18 10 0 6 -11 10 -25 10 -14 0
-25 5 -25 11 0 17 -27 39 -49 39 -12 0 -21 5 -21 10 0 6 -9 10 -20 10 -11 0
-20 7 -20 15 0 9 -9 15 -25 15 -14 0 -25 5 -25 10 0 6 -11 10 -25 10 -14 0
-25 5 -25 10 0 6 -9 10 -20 10 -11 0 -20 5 -20 10 0 6 -16 10 -35 10 -24 0
-35 5 -35 15 0 9 -9 15 -25 15 -14 0 -25 5 -25 10 0 6 -16 10 -35 10 -19 0
-35 5 -35 10 0 6 -13 10 -30 10 -20 0 -30 5 -30 15 0 10 -11 15 -35 15 -19 0
-35 5 -35 10 0 6 -16 10 -35 10 -19 0 -35 5 -35 10 0 6 -20 10 -45 10 -33 0
-45 4 -45 15 0 11 -12 15 -50 15 -27 0 -50 5 -50 10 0 6 -28 10 -65 10 -37 0
-65 4 -65 10 0 6 -45 10 -115 10 -70 0 -115 4 -115 10 0 7 -2752 10 -8235 10
-5483 0 -8235 -3 -8235 -10z m14450 -4035 c0 -10 11 -15 35 -15 19 0 35 -4 35
-10 0 -5 9 -10 20 -10 11 0 20 -4 20 -10 0 -5 11 -10 25 -10 14 0 25 -4 25
-10 0 -5 11 -10 25 -10 14 0 25 -5 25 -11 0 -16 26 -39 44 -39 9 0 16 -4 16
-10 0 -5 7 -10 15 -10 8 0 15 -5 15 -10 0 -14 46 -60 60 -60 5 0 10 -10 10
-23 0 -12 9 -29 20 -37 11 -8 20 -25 20 -37 0 -13 5 -23 10 -23 6 0 10 -9 10
-20 0 -11 7 -20 15 -20 9 0 15 -9 15 -25 0 -14 5 -25 10 -25 6 0 10 -16 10
-35 0 -19 5 -35 10 -35 6 0 10 -60 10 -160 0 -100 -4 -160 -10 -160 -5 0 -10
-16 -10 -35 0 -19 -4 -35 -10 -35 -5 0 -10 -16 -10 -35 0 -24 -5 -35 -15 -35
-8 0 -15 -9 -15 -20 0 -11 -4 -20 -10 -20 -5 0 -10 -7 -10 -15 0 -8 -4 -15
-10 -15 -5 0 -10 -7 -10 -16 0 -18 -23 -44 -39 -44 -6 0 -11 -5 -11 -10 0 -14
-46 -60 -60 -60 -5 0 -10 -5 -10 -10 0 -19 -48 -60 -70 -60 -11 0 -20 -4 -20
-10 0 -5 -9 -10 -20 -10 -11 0 -20 -7 -20 -15 0 -9 -9 -15 -25 -15 -14 0 -25
-4 -25 -10 0 -5 -16 -10 -35 -10 -19 0 -35 -4 -35 -10 0 -5 -20 -10 -45 -10
-33 0 -45 -4 -45 -15 0 -13 -689 -15 -6145 -15 -5456 0 -6145 2 -6145 15 0 11
-12 15 -50 15 -27 0 -50 5 -50 10 0 6 -13 10 -30 10 -16 0 -30 5 -30 10 0 6
-11 10 -25 10 -16 0 -25 6 -25 15 0 9 -9 15 -25 15 -14 0 -25 5 -25 10 0 6 -8
10 -18 10 -10 0 -24 9 -32 20 -8 11 -20 20 -27 20 -7 0 -13 5 -13 10 0 14 -46
60 -60 60 -5 0 -10 6 -10 13 0 7 -9 19 -20 27 -11 8 -20 22 -20 32 0 10 -7 18
-15 18 -8 0 -15 7 -15 15 0 8 -4 15 -10 15 -5 0 -10 9 -10 20 0 11 -4 20 -10
20 -5 0 -10 16 -10 35 0 19 -4 35 -10 35 -5 0 -10 16 -10 35 0 24 -5 35 -15
35 -13 0 -15 24 -15 160 0 136 2 160 15 160 10 0 15 11 15 35 0 19 5 35 10 35
6 0 10 11 10 25 0 14 5 25 10 25 6 0 10 9 10 20 0 11 5 20 10 20 6 0 10 11 10
25 0 14 5 25 11 25 16 0 39 26 39 45 0 16 22 45 35 45 8 0 35 27 35 35 0 13
29 35 45 35 19 0 45 23 45 39 0 6 11 11 25 11 14 0 25 5 25 10 0 6 9 10 20 10
11 0 20 5 20 10 0 6 11 10 25 10 14 0 25 5 25 10 0 6 16 10 35 10 24 0 35 5
35 15 0 13 697 15 6215 15 5518 0 6215 -2 6215 -15z m-70 -3345 c0 -6 27 -10
60 -10 47 0 60 -3 60 -15 0 -8 9 -15 20 -15 11 0 20 -4 20 -10 0 -5 11 -10 25
-10 14 0 25 -4 25 -10 0 -5 9 -10 20 -10 11 0 20 -7 20 -15 0 -8 9 -15 20 -15
22 0 70 -41 70 -60 0 -5 5 -10 11 -10 6 0 24 -13 39 -30 15 -16 33 -30 39 -30
6 0 11 -7 11 -15 0 -8 5 -15 10 -15 6 0 10 -9 10 -20 0 -11 5 -20 10 -20 6 0
10 -7 10 -15 0 -8 5 -15 10 -15 6 0 10 -9 10 -20 0 -11 7 -20 15 -20 9 0 15
-9 15 -25 0 -14 5 -25 10 -25 6 0 10 -20 10 -45 0 -25 5 -45 10 -45 6 0 10
-60 10 -160 0 -100 -4 -160 -10 -160 -5 0 -10 -16 -10 -35 0 -19 -4 -35 -10
-35 -5 0 -10 -9 -10 -20 0 -11 -7 -20 -15 -20 -9 0 -15 -9 -15 -25 0 -14 -4
-25 -10 -25 -5 0 -10 -10 -10 -23 0 -12 -9 -29 -20 -37 -11 -8 -20 -25 -20
-37 0 -13 -5 -23 -11 -23 -6 0 -24 -13 -39 -30 -15 -16 -33 -30 -39 -30 -6 0
-11 -7 -11 -15 0 -8 -8 -15 -18 -15 -10 0 -24 -9 -32 -20 -8 -11 -25 -20 -37
-20 -14 0 -23 -6 -23 -15 0 -9 -9 -15 -25 -15 -14 0 -25 -4 -25 -10 0 -5 -9
-10 -20 -10 -11 0 -20 -4 -20 -10 0 -5 -16 -10 -35 -10 -19 0 -35 -4 -35 -10
0 -7 -2078 -10 -6215 -10 -4137 0 -6215 3 -6215 10 0 6 -16 10 -35 10 -19 0
-35 5 -35 10 0 6 -11 10 -25 10 -14 0 -25 5 -25 10 0 6 -9 10 -20 10 -11 0
-20 7 -20 15 0 9 -9 15 -23 15 -12 0 -29 9 -37 20 -8 11 -25 20 -37 20 -13 0
-23 5 -23 10 0 12 -45 60 -55 60 -13 0 -35 29 -35 45 0 19 -23 45 -39 45 -6 0
-11 11 -11 25 0 14 -4 25 -10 25 -5 0 -10 11 -10 25 0 14 -4 25 -10 25 -5 0
-10 9 -10 20 0 11 -4 20 -10 20 -5 0 -10 16 -10 35 0 24 -5 35 -15 35 -13 0
-15 24 -15 160 0 136 2 160 15 160 11 0 15 12 15 45 0 25 5 45 10 45 6 0 10
11 10 25 0 14 5 25 10 25 6 0 10 9 10 20 0 11 5 20 10 20 6 0 10 7 10 15 0 8
7 15 15 15 8 0 15 9 15 20 0 11 5 20 10 20 6 0 10 5 10 11 0 11 25 39 35 39
10 0 55 48 55 60 0 5 6 10 13 10 7 0 19 9 27 20 8 11 22 20 32 20 10 0 18 7
18 15 0 9 9 15 25 15 14 0 25 5 25 10 0 6 11 10 25 10 14 0 25 5 25 10 0 6 9
10 20 10 11 0 20 7 20 15 0 12 13 15 60 15 33 0 60 4 60 10 0 7 2055 10 6145
10 4090 0 6145 -3 6145 -10z m-5320 -3375 c0 -10 11 -15 35 -15 19 0 35 -4 35
-10 0 -5 16 -10 35 -10 19 0 35 -4 35 -10 0 -5 9 -10 20 -10 11 0 20 -7 20
-15 0 -8 7 -15 15 -15 8 0 15 -4 15 -10 0 -5 8 -10 18 -10 10 0 24 -9 32 -20
8 -11 20 -20 27 -20 7 0 13 -5 13 -10 0 -14 46 -60 60 -60 5 0 10 -6 10 -13 0
-7 9 -19 20 -27 11 -8 20 -22 20 -32 0 -10 5 -18 10 -18 6 0 10 -11 10 -25 0
-16 6 -25 15 -25 9 0 15 -9 15 -25 0 -14 5 -25 10 -25 6 0 10 -9 10 -20 0 -11
5 -20 10 -20 6 0 10 -27 10 -60 0 -47 3 -60 15 -60 12 0 15 -18 15 -100 0 -82
-3 -100 -15 -100 -11 0 -15 -12 -15 -45 0 -25 -4 -45 -10 -45 -5 0 -10 -16
-10 -35 0 -19 -4 -35 -10 -35 -5 0 -10 -11 -10 -25 0 -16 -6 -25 -15 -25 -9 0
-15 -9 -15 -23 0 -12 -9 -29 -20 -37 -11 -8 -20 -22 -20 -32 0 -10 -4 -18 -10
-18 -5 0 -10 -7 -10 -15 0 -8 -5 -15 -10 -15 -14 0 -60 -46 -60 -60 0 -5 -7
-10 -15 -10 -8 0 -15 -4 -15 -10 0 -5 -8 -10 -18 -10 -10 0 -24 -9 -32 -20 -8
-11 -25 -20 -37 -20 -14 0 -23 -6 -23 -15 0 -9 -9 -15 -25 -15 -14 0 -25 -4
-25 -10 0 -5 -16 -10 -35 -10 -19 0 -35 -4 -35 -10 0 -5 -20 -10 -45 -10 -33
0 -45 -4 -45 -15 0 -13 -391 -15 -3460 -15 -3069 0 -3460 2 -3460 15 0 12 -13
15 -60 15 -33 0 -60 4 -60 10 0 6 -9 10 -20 10 -11 0 -20 5 -20 10 0 6 -11 10
-25 10 -16 0 -25 6 -25 15 0 9 -9 15 -25 15 -14 0 -25 5 -25 10 0 6 -8 10 -18
10 -10 0 -24 9 -32 20 -8 11 -20 20 -27 20 -7 0 -13 5 -13 10 0 14 -46 60 -60
60 -5 0 -10 5 -10 10 0 14 -46 60 -60 60 -5 0 -10 11 -10 25 0 14 -4 25 -10
25 -5 0 -10 9 -10 20 0 11 -4 20 -10 20 -5 0 -10 11 -10 25 0 14 -4 25 -10 25
-5 0 -10 20 -10 45 0 33 -4 45 -15 45 -13 0 -15 24 -15 160 0 136 2 160 15
160 10 0 15 11 15 35 0 19 5 35 10 35 6 0 10 11 10 25 0 14 5 25 10 25 6 0 10
9 10 20 0 11 5 20 10 20 6 0 10 11 10 25 0 14 5 25 11 25 16 0 39 26 39 45 0
16 22 45 35 45 8 0 35 27 35 35 0 13 29 35 47 35 10 0 25 9 33 20 8 11 25 20
37 20 14 0 23 6 23 15 0 8 9 15 20 15 11 0 20 5 20 10 0 6 11 10 25 10 14 0
25 5 25 10 0 6 20 10 45 10 33 0 45 4 45 15 0 13 397 15 3510 15 3113 0 3510
-2 3510 -15z"/>
<path d="M24133 14928 c-530 -530 -963 -968 -963 -973 0 -6 435 -445 968 -978
l967 -967 970 970 969 969 -964 968 c-531 532 -969 969 -975 971 -5 1 -443
-431 -972 -960z"/>
</g>
</svg>
